HIERARCHY
ROOT hip
{
  OFFSET 0 0 0
  CHANNELS 6 Xposition Yposition Zposition Zrotation Yrotation Xrotation
  JOINT abdomen
  {
    OFFSET 0 20.6881 -0.73152
    CHANNELS 3 Zrotation Xrotation Yrotation
    JOINT chest
    {
      OFFSET 0 11.7043 -0.48768
      CHANNELS 3 Zrotation Xrotation Yrotation
      JOINT neck
      {
        OFFSET 0 22.1894 -2.19456
        CHANNELS 3 Zrotation Xrotation Yrotation
        JOINT head
        {
          OFFSET -0.24384 7.07133 1.2192
          CHANNELS 3 Zrotation Xrotation Yrotation
          JOINT leftEye
          {
            OFFSET 4.14528 8.04674 8.04672
            CHANNELS 3 Zrotation Xrotation Yrotation
            End Site
            {
              OFFSET 1 0 0
            }
          }
          JOINT rightEye
          {
            OFFSET -3.6576 8.04674 8.04672
            CHANNELS 3 Zrotation Xrotation Yrotation
            End Site
            {
              OFFSET 1 0 0
            }
          }
        }
      }
      JOINT rCollar
      {
        OFFSET -2.68224 19.2634 -4.8768
        CHANNELS 3 Zrotation Xrotation Yrotation
        JOINT rShldr
        {
          OFFSET -8.77824 -1.95073 1.46304
          CHANNELS 3 Zrotation Xrotation Yrotation
          JOINT rForeArm
          {
            OFFSET -28.1742 -1.7115 0.48768
            CHANNELS 3 Zrotation Xrotation Yrotation
            JOINT rHand
            {
              OFFSET -22.5879 0.773209 7.07136
              CHANNELS 3 Zrotation Xrotation Yrotation
              JOINT rThumb1
              {
                OFFSET -1.2192 -0.487915 3.41376
                CHANNELS 3 Zrotation Xrotation Yrotation
                JOINT rThumb2
                {
                  OFFSET -3.37035 -0.52449 3.41376
                  CHANNELS 3 Zrotation Xrotation Yrotation
                  End Site
                  {
                    OFFSET -1.78271 -1.18214 1.43049
                  }
                }
              }
              JOINT rIndex1
              {
                OFFSET -7.75947 0.938293 5.60832
                CHANNELS 3 Zrotation Xrotation Yrotation
                JOINT rIndex2
                {
                  OFFSET -2.54057 -0.884171 1.56538
                  CHANNELS 3 Zrotation Xrotation Yrotation
                  End Site
                  {
                    OFFSET -1.62519 -0.234802 1.16502
                  }
                }
              }
              JOINT rMid1
              {
                OFFSET -8.24714 1.18213 3.41376
                CHANNELS 3 Zrotation Xrotation Yrotation
                JOINT rMid2
                {
                  OFFSET -3.10165 -0.590103 1.0647
                  CHANNELS 3 Zrotation Xrotation Yrotation
                  End Site
                  {
                    OFFSET -2.48547 -0.328903 0.83742
                  }
                }
              }
              JOINT rRing1
              {
                OFFSET -8.82822 0.546677 1.51678
                CHANNELS 3 Zrotation Xrotation Yrotation
                JOINT rRing2
                {
                  OFFSET -2.60934 -0.819778 -0.0198488
                  CHANNELS 3 Zrotation Xrotation Yrotation
                  End Site
                  {
                    OFFSET -2.33842 -0.294052 0.168128
                  }
                }
              }
              JOINT rPinky1
              {
                OFFSET -8.27202 -0.0477905 -0.4584
                CHANNELS 3 Zrotation Xrotation Yrotation
                JOINT rPinky2
                {
                  OFFSET -1.82734 -0.647385 -0.700984
                  CHANNELS 3 Zrotation Xrotation Yrotation
                  End Site
                  {
                    OFFSET -1.69225 -0.51767 -0.607171
                  }
                }
              }
            }
          }
        }
      }
      JOINT lCollar
      {
        OFFSET 2.68224 19.2634 -4.8768
        CHANNELS 3 Zrotation Xrotation Yrotation
        JOINT lShldr
        {
          OFFSET 8.77824 -1.95073 1.46304
          CHANNELS 3 Zrotation Xrotation Yrotation
          JOINT lForeArm
          {
            OFFSET 28.1742 -1.7115 0.48768
            CHANNELS 3 Zrotation Xrotation Yrotation
            JOINT lHand
            {
              OFFSET 22.5879 0.773209 7.07136
              CHANNELS 3 Zrotation Xrotation Yrotation
              JOINT lThumb1
              {
                OFFSET 1.2192 -0.487915 3.41376
                CHANNELS 3 Zrotation Xrotation Yrotation
                JOINT lThumb2
                {
                  OFFSET 3.37035 -0.52449 3.41376
                  CHANNELS 3 Zrotation Xrotation Yrotation
                  End Site
                  {
                    OFFSET 1.78271 -1.18214 1.43049
                  }
                }
              }
              JOINT lIndex1
              {
                OFFSET 7.75947 0.938293 5.60832
                CHANNELS 3 Zrotation Xrotation Yrotation
                JOINT lIndex2
                {
                  OFFSET 2.54057 -0.884171 1.56538
                  CHANNELS 3 Zrotation Xrotation Yrotation
                  End Site
                  {
                    OFFSET 1.62519 -0.234802 1.16502
                  }
                }
              }
              JOINT lMid1
              {
                OFFSET 8.24714 1.18213 3.41376
                CHANNELS 3 Zrotation Xrotation Yrotation
                JOINT lMid2
                {
                  OFFSET 3.10165 -0.590103 1.0647
                  CHANNELS 3 Zrotation Xrotation Yrotation
                  End Site
                  {
                    OFFSET 2.48547 -0.328903 0.83742
                  }
                }
              }
              JOINT lRing1
              {
                OFFSET 8.82822 0.546677 1.51678
                CHANNELS 3 Zrotation Xrotation Yrotation
                JOINT lRing2
                {
                  OFFSET 2.60934 -0.819778 -0.0198488
                  CHANNELS 3 Zrotation Xrotation Yrotation
                  End Site
                  {
                    OFFSET 2.33842 -0.294052 0.168128
                  }
                }
              }
              JOINT lPinky1
              {
                OFFSET 8.27202 -0.0477905 -0.4584
                CHANNELS 3 Zrotation Xrotation Yrotation
                JOINT lPinky2
                {
                  OFFSET 1.82734 -0.647385 -0.700984
                  CHANNELS 3 Zrotation Xrotation Yrotation
                  End Site
                  {
                    OFFSET 1.69225 -0.51767 -0.607171
                  }
                }
              }
            }
          }
        }
      }
    }
  }
  JOINT rButtock
  {
    OFFSET -8.77824 4.35084 1.2192
    CHANNELS 3 Zrotation Xrotation Yrotation
    JOINT rThigh
    {
      OFFSET 0 -1.70687 -2.19456
      CHANNELS 3 Zrotation Xrotation Yrotation
      JOINT rShin
      {
        OFFSET 0 -36.8199 0.73152
        CHANNELS 3 Zrotation Xrotation Yrotation
        JOINT rFoot
        {
          OFFSET 0.73152 -45.1104 -5.12064
          CHANNELS 3 Zrotation Xrotation Yrotation
          End Site
          {
            OFFSET -1.1221 -3.69964 12.103
          }
        }
      }
    }
  }
  JOINT lButtock
  {
    OFFSET 8.77824 4.35084 1.2192
    CHANNELS 3 Zrotation Xrotation Yrotation
    JOINT lThigh
    {
      OFFSET 0 -1.70687 -2.19456
      CHANNELS 3 Zrotation Xrotation Yrotation
      JOINT lShin
      {
        OFFSET 0 -36.8199 0.73152
        CHANNELS 3 Zrotation Xrotation Yrotation
        JOINT lFoot
        {
          OFFSET -0.73152 -45.1104 -5.12064
          CHANNELS 3 Zrotation Xrotation Yrotation
          End Site
          {
            OFFSET 1.1221 -3.69964 12.103
          }
        }
      }
    }
  }
}
MOTION
Frames:	4
Frame Time:	0.00833333
-3.65223 84.2564 37.0144 0.0 0.0 0.0 -1.24151 -0.00398119 -0.0340789 -0.342494 -0.00249263 -0.0593272 5.61869e-14 -1.59028e-15 -3.23025e-16 1.68007e-13 3.18055e-15 -9.56651e-16 -0.0 0.0 0.0 -0.0 0.0 0.0 2.77303e-14 4.11546e-17 -4.96962e-17 5.89729e-13 7.95139e-16 -3.97569e-16 1.01138e-11 -3.00264e-12 -1.46306e-13 1.15836e-10 3.17253e-12 -4.48458e-13 2.73225e-10 3.68926e-13 -1.29767e-12 4.71841e-10 6.39292e-13 -2.26853e-12 2.73229e-10 3.71727e-13 -1.31039e-12 7.73091 5.47488 0.417314 2.73224e-10 3.69044e-13 -1.30403e-12 2.90554 0.965183 0.102902 2.73236e-10 3.69441e-13 -1.30482e-12 10.2786 0.731801 0.0259123 2.73228e-10 3.69342e-13 -1.30403e-12 2.22167 -0.733487 -0.20892 2.78319e-14 3.80486e-17 -2.48481e-16 5.85437e-13 6.83322e-16 -2.38542e-15 1.01282e-11 3.04936e-12 -1.62208e-13 1.15809e-10 -2.88963e-12 -4.19833e-13 2.73202e-10 3.47012e-13 -1.31357e-12 4.71817e-10 5.97944e-13 -2.26058e-12 2.73195e-10 3.48271e-13 -1.30085e-12 -7.73091 5.47488 -0.417314 2.732e-10 3.47873e-13 -1.30721e-12 -2.90554 0.965183 -0.102902 2.73194e-10 3.47674e-13 -1.30403e-12 -10.2786 0.731801 -0.0259123 2.73208e-10 3.47078e-13 -1.31039e-12 -2.22167 -0.733487 0.20892 -2.03217e-16 0.0 -3.88251e-19 -0.453819 -1.92099 -0.00952747 -0.00915576 -2.07857 -0.0755535 -0.487475 3.99699 0.136656 2.03217e-16 0.0 3.88251e-19 -1.43726 -5.97115 0.129661 -0.00126433 5.25796 -0.0454147 0.507804 0.710743 -0.0722727
-5.80692 83.928 36.5661 -4.0652 -3.4966 0.0114 -0.152073 -0.20777 0.411902 -0.298491 -0.838224 0.0741133 -0.297651 1.63175 -0.0986197 1.20004 0.664435 -0.17312 -0.0 0.0 0.0 -0.0 0.0 0.0 3.63593e-14 4.89394e-15 1.43746e-14 23.6481 6.10407 -4.08862 -6.28066 -3.43388 9.098 0.0209987 3.21529 0.449313 5.9881e-11 2.18702e-10 -6.93308e-11 1.02689e-10 3.77989e-10 -1.18174e-10 5.98857e-11 2.18707e-10 -6.93414e-11 7.73091 5.47488 0.417314 5.98812e-11 2.18702e-10 -6.93343e-11 2.90554 0.965183 0.102902 5.98907e-11 2.18704e-10 -6.93358e-11 10.2786 0.731801 0.0259123 5.98833e-11 2.18703e-10 -6.93334e-11 2.22167 -0.733487 -0.20892 3.6413e-14 4.89168e-15 1.41339e-14 -23.7956 7.5425 2.6482 5.41797 -2.75913 -8.11453 -0.00467218 1.52135 -0.213542 6.79463e-11 -1.18125e-10 -6.90053e-11 1.17093e-10 -2.03688e-10 -1.18725e-10 6.79405e-11 -1.18123e-10 -6.89955e-11 -7.73091 5.47488 -0.417314 6.79458e-11 -1.18123e-10 -6.90008e-11 -2.90554 0.965183 -0.102902 6.79393e-11 -1.18123e-10 -6.89981e-11 -10.2786 0.731801 -0.0259123 6.79518e-11 -1.18123e-10 -6.90055e-11 -2.22167 -0.733487 0.20892 -2.03217e-16 0.0 -3.88251e-19 -6.24435 -2.21668 -0.010631 -0.00635652 -1.69033 -0.0553363 -0.222406 3.90257 0.096352 2.03217e-16 0.0 3.88251e-19 1.73396 -6.32826 -1.94697 -0.0212612 10.1235 -0.190235 0.839287 -5.21075 4.47829
-5.80504 83.9285 36.5677 -4.0557 -3.5038 0.0044 1.00269 -0.422179 0.88471 -0.248774 -1.72123 0.215623 -0.605209 3.35656 -0.203512 2.473 1.36396 -0.356992 -0.0 0.0 0.0 -0.0 0.0 0.0 4.77493e-14 9.8082e-15 3.04638e-14 49.6126 12.452 -8.56558 -11.7494 -6.77585 18.8195 -0.0119697 6.61398 0.929073 -1.90412e-10 4.791e-10 -1.50238e-10 -3.30448e-10 8.28033e-10 -2.55928e-10 -1.90407e-10 4.79107e-10 -1.50247e-10 7.73091 5.47488 0.417314 -1.90411e-10 4.79099e-10 -1.50239e-10 2.90554 0.965183 0.102902 -1.90404e-10 4.79103e-10 -1.50241e-10 10.2786 0.731801 0.0259123 -1.9041e-10 4.79101e-10 -1.50237e-10 2.22167 -0.733487 -0.20892 4.77513e-14 9.80684e-15 3.0178e-14 -49.7347 15.4523 5.60669 10.3074 -5.49387 -16.7567 0.00278147 3.14384 -0.441796 -1.57699e-10 -2.58327e-10 -1.59725e-10 -2.72901e-10 -4.45506e-10 -2.74976e-10 -1.57704e-10 -2.58324e-10 -1.59718e-10 -7.73091 5.47488 -0.417314 -1.57699e-10 -2.58324e-10 -1.59722e-10 -2.90554 0.965183 -0.102902 -1.57705e-10 -2.58324e-10 -1.5972e-10 -10.2786 0.731801 -0.0259123 -1.57694e-10 -2.58324e-10 -1.59728e-10 -2.22167 -0.733487 0.20892 -2.03217e-16 0.0 -3.88251e-19 -12.3658 -2.52929 -0.0117993 -0.00369541 -1.27996 -0.033976 0.0576228 3.80283 0.0537618 2.03217e-16 0.0 3.88251e-19 5.05652 -6.6942 -4.14709 -0.0146175 15.2667 -0.34982 2.2268 -11.3527 9.43953
-5.81404 83.9287 36.5662 -4.0848 -3.5163 0.0079 2.03632 -0.615205 1.30393 -0.198798 -2.50964 0.341298 -0.876049 4.89518 -0.296822 3.61218 1.99323 -0.51964 -0.0 0.0 0.0 -0.0 0.0 0.0 5.36174e-14 1.45995e-14 4.32232e-14 73.648 17.93 -12.8291 -15.6726 -9.26433 27.6352 -0.0901203 9.64349 1.36511 -3.66807e-10 6.55369e-10 -2.05397e-10 -6.35614e-10 1.13269e-09 -3.49986e-10 -3.668e-10 6.55378e-10 -2.05403e-10 7.73091 5.47488 0.417314 -3.66805e-10 6.55368e-10 -2.05395e-10 2.90554 0.965183 0.102902 -3.668e-10 6.55373e-10 -2.05398e-10 10.2786 0.731801 0.0259123 -3.66805e-10 6.5537e-10 -2.05392e-10 2.22167 -0.733487 -0.20892 5.35753e-14 1.45989e-14 4.28987e-14 -73.616 22.426 8.52477 13.9705 -7.61468 -24.5457 0.0200953 4.56379 -0.642437 -3.42565e-10 -3.55068e-10 -2.04389e-10 -5.92355e-10 -6.12261e-10 -3.51653e-10 -3.42568e-10 -3.55065e-10 -2.04385e-10 -7.73091 5.47488 -0.417314 -3.42563e-10 -3.55065e-10 -2.04388e-10 -2.90554 0.965183 -0.102902 -3.4257e-10 -3.55064e-10 -2.04386e-10 -10.2786 0.731801 -0.0259123 -3.4256e-10 -3.55065e-10 -2.04396e-10 -2.22167 -0.733487 0.20892 -2.03217e-16 0.0 -3.88251e-19 -17.8255 -2.80808 -0.0128404 -0.00157996 -0.913843 -0.0149309 0.307331 3.71373 0.0157716 2.03217e-16 0.0 3.88251e-19 7.99868 -7.01368 -6.10912 0.0169659 19.8539 -0.501163 4.39661 -16.6132 14.1248
